<svg width="24" height="19" viewBox="0 0 24 19" fill="none" xmlns="http://www.w3.org/2000/svg">
<path fill-rule="evenodd" clip-rule="evenodd" d="M11.448 0.011621C9.81535 0.0853462 8.24676 0.487321 6.76913 1.21064C6.25847 1.46061 5.89208 1.66878 5.45031 1.95989C4.64265 2.49213 3.88625 3.1318 3.26218 3.81037C2.87138 4.23528 2.69932 4.4402 2.42013 4.81316C1.659 5.82991 1.02802 7.03101 0.633893 8.21321C0.180585 9.57293 -0.0361607 11.0157 0.00492 12.4002C0.0353937 13.4276 0.158342 14.3111 0.403626 15.265C0.516824 15.7051 0.767081 16.4488 0.93841 16.8542C1.09237 17.2184 1.35181 17.7481 1.48228 17.9645L1.56716 18.1053H11.999H22.4309L22.5651 17.8543C22.8405 17.3393 23.1672 16.5512 23.3855 15.8753C23.4532 15.6656 23.5587 15.2945 23.6199 15.0506C23.8306 14.2113 23.9342 13.5253 23.9823 12.651C24.0059 12.222 24.0059 11.985 23.9824 11.5369C23.9353 10.6385 23.8302 9.92603 23.6228 9.10041C23.2308 7.53991 22.5238 6.06739 21.5409 4.76429C20.9272 3.95067 20.2436 3.25061 19.4149 2.58703C19.0023 2.25673 18.3284 1.8014 17.866 1.54048C17.0136 1.05957 16.0851 0.676519 15.1411 0.416412C13.9952 0.100674 12.6765 -0.0438626 11.448 0.011621ZM13.2479 1.51516C13.9656 1.60625 14.5871 1.7395 15.2082 1.93541C16.2017 2.24879 17.1948 2.737 18.0534 3.33418C18.4241 3.59205 18.8893 3.96925 19.2278 4.28655C20.5525 5.52837 21.5047 7.01348 22.0758 8.72848C22.2945 9.38525 22.4815 10.2625 22.5611 11.0045C22.5819 11.1987 22.5933 11.5971 22.5923 12.0941C22.5912 12.6736 22.58 12.9637 22.5495 13.2082C22.4055 14.3615 22.1006 15.4599 21.6627 16.4029L21.5523 16.6406L12.0173 16.6228C5.06008 16.6098 2.47736 16.5976 2.46425 16.5777C2.45435 16.5627 2.39762 16.4399 2.33819 16.3048C2.02939 15.6029 1.75931 14.6778 1.6164 13.8325C1.5068 13.1842 1.48 12.8357 1.48 12.0574C1.48 11.2832 1.50685 10.9304 1.61412 10.2945C1.85671 8.85641 2.38669 7.49273 3.17477 6.27887C3.4107 5.91546 3.77474 5.43151 4.06809 5.09134C4.19584 4.9432 4.47694 4.65009 4.69275 4.44C5.10726 4.03651 5.54937 3.66864 6.00314 3.34975C6.38571 3.08088 6.97176 2.73509 7.40604 2.52202C8.10147 2.18082 8.96813 1.87262 9.67858 1.71391C10.0761 1.6251 10.6096 1.53759 10.9458 1.50606C11.1007 1.49151 11.2661 1.47523 11.3132 1.46984C11.3604 1.46448 11.7462 1.46374 12.1706 1.46823C12.6836 1.47364 13.0447 1.48936 13.2479 1.51516ZM8.70208 3.20597C8.69176 3.2329 7.672 5.80019 6.43588 8.91104L4.18844 14.5671L3.59866 14.5737L3.00891 14.5803V15.0328V15.4853H6.21795H9.427V15.0328V14.5802L8.79489 14.5737L8.16278 14.5671L8.79261 12.8042C9.13902 11.8346 9.43126 11.0427 9.44202 11.0445C9.4528 11.0462 10.0329 12.0324 10.7312 13.2359C11.4296 14.4394 12.0098 15.4389 12.0207 15.4571C12.0339 15.479 12.4505 14.7539 13.2774 13.2695C13.9577 12.0483 14.523 11.0473 14.5336 11.0452C14.5442 11.043 14.8363 11.8346 15.1829 12.8042L15.8129 14.5671L15.1798 14.5737L14.5468 14.5802V15.0328V15.4853H17.7313H20.9159V15.0328V14.5803L20.3604 14.5737L19.8049 14.5671L17.5986 8.89155L15.3923 3.21596L15.3116 3.22321L15.2309 3.23046L13.6434 6.34009C12.7703 8.05038 12.047 9.44785 12.036 9.44558C12.0214 9.44252 9.3528 4.38305 8.79021 3.29167C8.73093 3.17666 8.71805 3.16415 8.70208 3.20597Z" fill="#446489"/>
</svg>
