<svg width="20" height="25" viewBox="0 0 20 25" fill="none" xmlns="http://www.w3.org/2000/svg">
<g clip-path="url(#clip0_71_6088)">
<path d="M9.4 2.09766C13.5 2.09766 12 8.09766 12 8.09766C12 8.09766 18 6.39766 18 10.5977V22.0977H2V2.09766H9.4ZM10.2 0.0976562H0V24.0977H20V9.69766C20 7.29766 13.4 0.0976562 10.2 0.0976562ZM15 13.0977H12.4V16.7977H13.3V15.2977H14.8V14.5977H13.3V13.8977H15V13.0977ZM10.1 13.0977H8.5V16.7977H10.1C10.6 16.7977 11.1 16.5977 11.4 16.2977C12 15.5977 12 14.2977 11.3 13.5977C11 13.2977 10.6 13.0977 10.1 13.0977ZM9.4 13.8977H9.9C10.4 13.8977 10.7 14.0977 10.8 14.4977C10.9 14.7977 10.9 15.1977 10.8 15.3977C10.7 15.7977 10.4 15.8977 10 15.8977H9.4V13.8977ZM6.7 13.0977H5V16.7977H5.9V15.4977H6.7C7.3 15.4977 7.8 15.1977 7.9 14.6977C8 14.4977 8 14.0977 7.9 13.8977C7.7 13.3977 7.3 13.0977 6.7 13.0977ZM5.9 13.7977H6.4C6.6 13.7977 6.9 13.7977 7 13.9977C7.1 14.0977 7.1 14.3977 7 14.4977C6.9 14.6977 6.7 14.6977 6.4 14.6977H5.9V13.7977Z" fill="#446489"/>
</g>
<defs>
<clipPath id="clip0_71_6088">
<rect width="20" height="24" fill="white" transform="translate(0 0.0976562)"/>
</clipPath>
</defs>
</svg>
