<svg width="33" height="57" viewBox="0 0 33 57" fill="none" xmlns="http://www.w3.org/2000/svg">
<path d="M15.36 32.82C23.92 30.1 32.16 25.22 32.16 15.62C32.16 10.26 29.52 6.82003 27.28 4.98003C24.32 2.50002 19.84 0.900024 13.76 0.900024C3.44 0.900024 0 6.26002 0 9.78003C0 11.86 1.28 14.66 5.92 14.66C6.4 14.66 6.96 14.66 7.52 14.58L11.12 5.54003C16.4 5.78002 21.76 7.54003 21.76 15.54C21.76 21.94 17.36 26.82 10.16 29.3V40.1H15.36V32.82ZM6.88 50.02C6.88 53.38 9.6 56.1 12.96 56.1C16.32 56.1 19.04 53.38 19.04 50.02C19.04 46.66 16.32 43.94 12.96 43.94C9.6 43.94 6.88 46.66 6.88 50.02Z" fill="#2BAFE6"/>
</svg>
